# xmcd
#
# Track frame offsets: 
#        150
#        16700
#        42375
#
# Disc length: 845 seconds
#
# Revision: 0
# Processed by: cddbd v1.5.1PL0 Copyright (c) Steve Scherf et al.
# Submitted via: ExactAudioCopy v0.90b4
#
DISCID=18034b03
DTITLE=Kosmos - Raumpatrouille (Space Patrol)
DYEAR=1996
DGENRE=
TTITLE0=Raumpatrouille (Space Patrol) Radio-Video Edit
TTITLE1=Raumpatrouille (Space Patrol) Maxi-Euro Edit
TTITLE2=Space Ship
EXTD=
EXTT0=
EXTT1=
EXTT2=
PLAYORDER=
